<svg viewBox="0 0 950 480" xmlns="http://www.w3.org/2000/svg" style="background: #0a0a0a;">
    <style>
        text { font-family: -apple-system, BlinkMacSystemFont, 'Segoe UI', sans-serif; }
    </style>
    <g>
        <rect x="20" y="15" width="750" height="95" rx="8" fill="#3b82f6" opacity="0.15" stroke="#3b82f6" stroke-width="2"/>
        <text x="30" y="38" fill="#3b82f6" font-weight="700" font-size="14">INPUT LAYER</text>
        <rect x="30" y="50" width="140" height="50" rx="6" fill="#3b82f6"/><text x="100" y="80" text-anchor="middle" fill="white" font-size="11" font-weight="500">Multimodal Inputs</text>
        <rect x="180" y="50" width="150" height="50" rx="6" fill="#3b82f6"/><text x="255" y="80" text-anchor="middle" fill="white" font-size="11" font-weight="500">Context Engineering</text>
        <rect x="340" y="50" width="140" height="50" rx="6" fill="#3b82f6"/><text x="410" y="80" text-anchor="middle" fill="white" font-size="11" font-weight="500">Tool Descriptions</text>
        <rect x="490" y="50" width="130" height="50" rx="6" fill="#3b82f6"/><text x="555" y="80" text-anchor="middle" fill="white" font-size="11" font-weight="500">Meta Prompting</text>
        <rect x="630" y="50" width="130" height="50" rx="6" fill="#3b82f6"/><text x="695" y="80" text-anchor="middle" fill="white" font-size="10" font-weight="500">Auto Prompt Opt</text>
    </g>
    <g>
        <rect x="20" y="120" width="750" height="95" rx="8" fill="#10b981" opacity="0.15" stroke="#10b981" stroke-width="2"/>
        <text x="30" y="143" fill="#10b981" font-weight="700" font-size="14">DATA AND MODEL LAYER</text>
        <rect x="30" y="155" width="115" height="50" rx="6" fill="#10b981"/><text x="87" y="185" text-anchor="middle" fill="white" font-size="10" font-weight="500">Foundation Models</text>
        <rect x="155" y="155" width="110" height="50" rx="6" fill="#10b981"/><text x="210" y="185" text-anchor="middle" fill="white" font-size="10" font-weight="500">Long Context</text>
        <rect x="275" y="155" width="90" height="50" rx="6" fill="#10b981"/><text x="320" y="185" text-anchor="middle" fill="white" font-size="10" font-weight="500">RL + RLVR</text>
        <rect x="375" y="155" width="110" height="50" rx="6" fill="#10b981"/><text x="430" y="185" text-anchor="middle" fill="white" font-size="10" font-weight="500">Fine-Tuning</text>
        <rect x="495" y="155" width="130" height="50" rx="6" fill="#10b981"/><text x="560" y="185" text-anchor="middle" fill="white" font-size="10" font-weight="500">Hybrid Reasoning</text>
        <rect x="635" y="155" width="125" height="50" rx="6" fill="#10b981"/><text x="697" y="185" text-anchor="middle" fill="white" font-size="10" font-weight="500">Quantization</text>
    </g>
    <g>
        <rect x="20" y="225" width="750" height="95" rx="8" fill="#f97316" opacity="0.15" stroke="#f97316" stroke-width="2"/>
        <text x="30" y="248" fill="#f97316" font-weight="700" font-size="14">APPLICATION LAYER</text>
        <rect x="30" y="260" width="170" height="50" rx="6" fill="#f97316"/><text x="115" y="290" text-anchor="middle" fill="white" font-size="11" font-weight="500">RAG</text>
        <rect x="210" y="260" width="170" height="50" rx="6" fill="#f97316"/><text x="295" y="290" text-anchor="middle" fill="white" font-size="11" font-weight="500">Agents</text>
        <rect x="390" y="260" width="180" height="50" rx="6" fill="#f97316"/><text x="480" y="290" text-anchor="middle" fill="white" font-size="11" font-weight="500">Tool Calling</text>
        <rect x="580" y="260" width="180" height="50" rx="6" fill="#f97316"/><text x="670" y="290" text-anchor="middle" fill="white" font-size="11" font-weight="500">Agentic Frameworks</text>
    </g>
    <g>
        <rect x="20" y="330" width="750" height="95" rx="8" fill="#8b5cf6" opacity="0.15" stroke="#8b5cf6" stroke-width="2"/>
        <text x="30" y="353" fill="#8b5cf6" font-weight="700" font-size="14">OUTPUT LAYER</text>
        <rect x="30" y="365" width="170" height="50" rx="6" fill="#8b5cf6"/><text x="115" y="395" text-anchor="middle" fill="white" font-size="11" font-weight="500">Evals</text>
        <rect x="210" y="365" width="170" height="50" rx="6" fill="#8b5cf6"/><text x="295" y="395" text-anchor="middle" fill="white" font-size="11" font-weight="500">LLM Judges</text>
        <rect x="390" y="365" width="180" height="50" rx="6" fill="#8b5cf6"/><text x="480" y="395" text-anchor="middle" fill="white" font-size="11" font-weight="500">Guardrails</text>
        <rect x="580" y="365" width="180" height="50" rx="6" fill="#8b5cf6"/><text x="670" y="395" text-anchor="middle" fill="white" font-size="11" font-weight="500">Human-in-the-Loop</text>
    </g>
    <g>
        <rect x="790" y="15" width="145" height="410" rx="8" fill="#ef4444" opacity="0.15" stroke="#ef4444" stroke-width="2"/>
        <text x="862" y="42" text-anchor="middle" fill="#ef4444" font-weight="700" font-size="13">CHALLENGES</text>
        <rect x="800" y="55" width="125" height="38" rx="5" fill="#ef4444"/><text x="862" y="80" text-anchor="middle" fill="white" font-size="10" font-weight="500">Hallucinations</text>
        <rect x="800" y="100" width="125" height="38" rx="5" fill="#ef4444"/><text x="862" y="125" text-anchor="middle" fill="white" font-size="10" font-weight="500">Inconsistent Reasoning</text>
        <rect x="800" y="145" width="125" height="38" rx="5" fill="#ef4444"/><text x="862" y="170" text-anchor="middle" fill="white" font-size="10" font-weight="500">Over-Autonomy</text>
        <rect x="800" y="190" width="125" height="38" rx="5" fill="#ef4444"/><text x="862" y="215" text-anchor="middle" fill="white" font-size="10" font-weight="500">Poor Tool Grounding</text>
        <rect x="800" y="235" width="125" height="38" rx="5" fill="#ef4444"/><text x="862" y="260" text-anchor="middle" fill="white" font-size="10" font-weight="500">Long Context Drift</text>
        <rect x="800" y="280" width="125" height="38" rx="5" fill="#ef4444"/><text x="862" y="305" text-anchor="middle" fill="white" font-size="10" font-weight="500">Retrieval Issues</text>
        <rect x="800" y="325" width="125" height="38" rx="5" fill="#ef4444"/><text x="862" y="350" text-anchor="middle" fill="white" font-size="10" font-weight="500">Multi-Agent Errors</text>
        <rect x="800" y="370" width="125" height="38" rx="5" fill="#ef4444"/><text x="862" y="395" text-anchor="middle" fill="white" font-size="10" font-weight="500">Debugging</text>
    </g>
</svg>
